<?xml version="1.0" encoding="utf-8"?>
<!-- Generator: Adobe Illustrator 19.2.1, SVG Export Plug-In . SVG Version: 6.00 Build 0)  -->
<svg version="1.1" id="Layer_1" xmlns="http://www.w3.org/2000/svg" xmlns:xlink="http://www.w3.org/1999/xlink" x="0px" y="0px"
	 viewBox="0 0 500 300" style="enable-background:new 0 0 500 300;" xml:space="preserve">
<style type="text/css">
	.st0{fill:#65B5E5;}
	.st1{fill:#FFFFFF;}
	.st2{fill:none;stroke:#65B5E5;stroke-miterlimit:10;}
	.st3{fill:#0A539E;}
	.st4{clip-path:url(#SVGID_2_);}
	.st5{fill:none;}
	.st6{fill:#F3F4F2;}
	.st7{fill:#5489BD;}
	.st8{font-family:'SourceSansPro-Semibold';}
	.st9{font-size:28.2342px;}
	.st10{font-family:'MyriadPro-Regular';}
	.st11{font-size:17.3579px;}
	.st12{fill:#010101;}
</style>
<g>
	<rect y="1" class="st0" width="499.5" height="300.1"/>
	<g>
		<ellipse class="st1" cx="91.1" cy="195.5" rx="12.3" ry="13.2"/>
		<ellipse class="st0" cx="91.1" cy="195.5" rx="10.1" ry="10.9"/>
		<g>
			<path class="st1" d="M96.4,200.8H85.8c-0.7,0-1.2-0.6-1.2-1.2V192c0-0.7,0.6-1.2,1.2-1.2h10.5c0.7,0,1.2,0.6,1.2,1.2v7.6
				C97.6,200.3,97.1,200.8,96.4,200.8z"/>
			<polygon class="st2" points="96.9,189.7 91.1,196.5 85.3,189.7 			"/>
		</g>
	</g>
	<g>
		<ellipse class="st1" cx="91.2" cy="158.8" rx="12.3" ry="13.2"/>
		<ellipse class="st0" cx="91.2" cy="158.6" rx="10.1" ry="10.9"/>
		<path class="st1" d="M91.1,150.1c-3,0-5.4,2.6-5.4,5.7c0,3.2,5.4,12.2,5.4,12.2s5.4-9,5.4-12.2C96.6,152.7,94.1,150.1,91.1,150.1z
			 M91.1,159.1c-1.6,0-2.9-1.4-2.9-3c0-1.7,1.3-3,2.9-3c1.6,0,2.9,1.4,2.9,3C94,157.7,92.7,159.1,91.1,159.1z"/>
	</g>
	<g>
		<ellipse class="st1" cx="91.3" cy="123" rx="12.3" ry="13.2"/>
		<ellipse class="st0" cx="91.4" cy="123.1" rx="10.1" ry="10.9"/>
		<path class="st1" d="M88.4,121.7l2.3-1.6c0.3-0.2,0.4-0.6,0.2-0.9l-2.4-3.7c-0.2-0.3-0.6-0.4-0.8-0.2l-1.3,0.9l-0.3,0.4
			c-0.3,0.6-0.6,1.1-0.8,1.8c-0.6,2-0.3,4.3,0.9,6.2l2.7,4.2c1.2,1.9,3.2,2.9,5.2,3.1c0.6,0,1.2,0,1.8-0.1l0.5-0.1l1.3-0.9
			c0.3-0.2,0.3-0.6,0.1-0.9l-2.4-3.7c-0.2-0.3-0.6-0.4-0.9-0.2l-2.3,1.6c-0.6-0.5-1.2-1.1-1.7-1.8l-1.2-1.9
			C89,123.3,88.6,122.5,88.4,121.7z"/>
	</g>
	<path class="st3" d="M0,0c0,0,245.8,10,333.3,106.7c184,203.5,166.2,3,166.2,3V0H0z"/>
	<g>
		<defs>
			<rect id="SVGID_1_" width="499.5" height="301"/>
		</defs>
		<clipPath id="SVGID_2_">
			<use xlink:href="#SVGID_1_"  style="overflow:visible;"/>
		</clipPath>
		<g class="st4">
			<path class="st5" d="M391,140.2c-0.1-0.2-0.1-0.4-0.1-0.6c0.1-3.7,0.2-17.7-0.9-20.1c-0.2-0.3-0.4-0.6-0.6-0.8
				c-0.6-0.5-1.4-0.6-2.3-0.7c-0.9,0-1.7,0.2-2.3,0.7c-0.3,0.2-0.5,0.5-0.6,0.8c-1.1,2.4-0.9,16.4-0.9,20.1c0,0.2,0,0.4-0.1,0.6
				c-0.4,1-1.1,1.4-1.9,1.5c0,0.4,0,0.8,0,1.1c1.9,0.5,3.9,0.8,6,0.8c2,0,3.9-0.2,5.7-0.7c0-0.4,0-0.8,0-1.2
				C392.1,141.6,391.4,141.1,391,140.2z"/>
			<path class="st6" d="M399.2,118c0,0,13.8-0.6,60.6-24.9c9.2-4.8,18-7.7,26.2-9.2c49.4-9.5,89.9,40.5,73.5,90.3
				c-0.2,0.6-0.4,1.1-0.6,1.7c-19.3,55.9-39.9,78.8-49.6,102.8c-11.6,28.7-24.9,52.3-33.2,64.7c-3.4,5.1-8.8,8.5-14.7,8.9
				c-8.8,0.6-19.1-5.2-16.3-37.8c4.6-54.7-10.9-68.3-18.4-73.5c-4.7-3.3-29.8-13.8-39.7,37.7"/>
			<path class="st6" d="M463,118c0,0-13.8-0.6-60.6-24.9c-9.2-4.8-18-7.7-26.2-9.2c-49.4-9.5-89.9,40.5-73.5,90.3
				c0.2,0.6,0.4,1.1,0.6,1.7c19.3,55.9,39.9,78.8,49.6,102.8c11.6,28.7,24.9,52.3,33.2,64.7c3.4,5.1,8.8,8.5,14.7,8.9
				c8.8,0.6,19.1-5.2,16.3-37.8c-4.6-54.7,10.9-68.3,18.4-73.5c4.7-3.3,29.8-13.8,39.7,37.7"/>
			<g>
				<g>
					<path class="st7" d="M460.5,120.7c0,0-0.1,0-0.5,0c-0.3,0-0.8,0-1.4-0.1c-1.2-0.1-2.9-0.4-5.2-0.8c-4.5-0.9-10.9-2.7-19-5.5
						c-2-0.7-4.1-1.5-6.3-2.3c-2.2-0.9-4.5-1.8-6.9-2.7c-2.4-1-4.8-2-7.4-3.1c-2.5-1.1-5.1-2.3-7.8-3.5c-2.7-1.3-5.4-2.5-8.3-3.9
						c-1.5-0.7-2.8-1.3-4.2-1.9c-1.4-0.6-2.9-1.2-4.4-1.7c-5.9-2.2-12.3-4-19.1-4.8c-1.9-0.3-3.4-0.3-5-0.5c-0.8-0.1-1.7,0-2.5,0
						c-0.9,0-1.7,0-2.6,0c-0.9,0.1-1.7,0.1-2.6,0.2l-1.3,0.1l-1.3,0.2c-0.9,0.1-1.7,0.2-2.6,0.4c-0.9,0.2-1.7,0.4-2.6,0.6l-1.3,0.3
						L347,92c-0.9,0.2-1.7,0.5-2.6,0.8c-1.7,0.6-3.5,1.2-5.2,2l-1.3,0.6c-0.4,0.2-0.9,0.4-1.3,0.6c-0.8,0.4-1.7,0.8-2.5,1.3
						c-0.8,0.4-1.6,1-2.5,1.4l-1.2,0.7l-1.2,0.8c-3.3,2.1-6.3,4.6-9.3,7.4c-1.5,1.4-2.9,2.9-4.3,4.4c-1.3,1.6-2.7,3.2-3.9,4.9
						c-5,6.7-8.8,14.8-11,23.5c-1.1,4.4-1.7,8.9-1.9,13.5c-0.2,4.6,0.2,9.3,1,13.9c0.2,1.2,0.5,2.3,0.7,3.5c0.3,1.1,0.6,2.3,0.9,3.4
						c0.2,0.6,0.3,1.1,0.5,1.7l0.3,0.9l0.3,0.8l1.2,3.5c0.8,2.3,1.6,4.6,2.5,6.9c0.9,2.3,1.8,4.5,2.6,6.8c0.9,2.3,1.9,4.5,2.8,6.8
						l1.5,3.4l1.5,3.3c2.1,4.5,4.3,8.9,6.5,13.3c1.2,2.2,2.3,4.3,3.5,6.5c1.2,2.1,2.4,4.3,3.7,6.4c2.5,4.3,5.1,8.5,7.7,12.7
						c5.2,8.4,10.7,16.7,15.5,25.9c2.3,4.7,4.2,9.3,6.3,13.7c2,4.4,4.1,8.8,6.3,13.2c4.3,8.7,8.8,17.2,13.6,25.3
						c2.4,4.1,4.8,8.1,7.3,11.9c0.6,1,1.2,1.9,1.9,2.9l1,1.4l0.2,0.4c-0.1-0.2,0,0,0,0l0.1,0.2l0.3,0.4c0.1,0.1,0.2,0.3,0.2,0.3
						l0.3,0.4l0.4,0.5c0.3,0.3,0.6,0.6,0.9,0.9c0.6,0.6,1.3,1.1,2,1.5c1.4,0.9,2.8,1.5,4.3,1.8c0.4,0.1,0.8,0.1,1.1,0.2l0.6,0l0.1,0
						c0.1,0-0.4,0-0.1,0l0.4,0c0.5,0,1.2,0,1.3,0c0.3-0.1,0.5,0,0.8-0.1c1.3-0.3,2.2-0.8,3.1-1.5c0.9-0.8,1.6-2,2.4-3.5
						c1.3-3,2.1-6.9,2.4-10.9c0.3-4,0.4-8.1,0.1-12.2c-0.2-4.3-0.4-8.6-0.6-12.8c0-2.2,0-4.4-0.1-6.5c0-1.1,0-2.2,0-3.2
						c0-1.1,0.1-2.1,0.1-3.2c0.3-8.4,1.2-16.6,3.1-24.4c1.9-7.8,5-15.2,9.6-21.3c2.3-3,5-5.6,7.9-7.7c0.4-0.3,0.7-0.5,1.1-0.7
						l0.5-0.4l0.4-0.2l0.2-0.1l0.3-0.2l0.4-0.2c0.2-0.1,0.5-0.3,0.7-0.4c0.4-0.2,0.8-0.4,1.3-0.6c1.7-0.7,3.3-1.2,5-1.5
						c3.4-0.6,6.7-0.5,9.9,0.4c3.1,0.9,5.8,2.4,8.1,4.2c4.5,3.7,7.3,8.2,9.3,12.3c2,4.1,3.2,8,4.2,11.3c0.2,0.8,0.4,1.6,0.6,2.4
						c0.2,0.8,0.3,1.5,0.5,2.3c0.2,0.7,0.3,1.4,0.5,2.1c0.1,0.7,0.2,1.3,0.3,1.9c0.4,2.3,0.7,4.2,0.8,5.4c0.2,1.2,0.3,1.8,0.3,1.8
						l-1.1,0.2c0,0-0.2-0.6-0.5-1.8c-0.3-1.2-0.8-2.9-1.5-5.1c-0.2-0.6-0.4-1.1-0.6-1.8c-0.2-0.6-0.4-1.3-0.7-1.9
						c-0.2-0.7-0.5-1.4-0.7-2.1c-0.3-0.7-0.6-1.5-0.9-2.2c-1.3-3.1-2.8-6.6-5-10.1c-2.2-3.5-5-7.1-8.8-9.6c-1.9-1.2-4-2.1-6.2-2.5
						c-1.1-0.2-2.3-0.3-3.4-0.2c-1.2,0.1-2.4,0.2-3.5,0.6c-1.2,0.3-2.4,0.8-3.5,1.3c-0.3,0.1-0.5,0.3-0.8,0.4
						c-0.1,0.1-0.2,0.1-0.3,0.2l-0.1,0.1l-0.2,0.2l-0.2,0.2c-0.1,0,0.1-0.1,0,0l-0.1,0.1l-0.4,0.3c-0.3,0.2-0.6,0.4-0.8,0.7
						c-2.1,1.8-4,3.9-5.7,6.4c-3.2,5-5.5,11.2-6.8,18.2c-1.4,6.9-1.9,14.5-1.9,22.3c0,1,0,2,0,3c0,1,0.1,2,0.1,3c0.1,2,0.1,4,0.2,6
						c0.3,4.2,0.7,8.4,1,12.8c0.4,4.5,0.4,9.2,0.1,14c-0.1,1.2-0.2,2.5-0.4,3.7c-0.2,1.2-0.4,2.5-0.7,3.8c-0.2,1.3-0.7,2.6-1,3.9
						c-0.2,0.6-0.5,1.3-0.7,2c-0.3,0.7-0.5,1.3-0.8,2c-1.3,2.6-2.9,5.3-5.3,7.5c-2.5,2.2-5.6,3.7-8.7,4.3c-0.7,0.2-1.6,0.2-2.5,0.3
						c-1,0.1-1.4,0-2,0l-0.4,0c0.2,0-0.5,0-0.5,0l-0.3,0l-1.1-0.1c-0.7-0.1-1.4-0.2-2.2-0.4c-2.9-0.7-5.6-1.9-8-3.6
						c-1.2-0.8-2.4-1.7-3.4-2.8c-0.5-0.5-1-1-1.5-1.6c-0.2-0.3-0.5-0.5-0.7-0.9l-0.8-1c-0.1-0.2-0.2-0.3-0.3-0.4l-0.2-0.4l-0.3-0.5
						l-0.2-0.4l-1-1.5c-0.7-1-1.3-2.1-1.9-3.1c-2.5-4.1-4.9-8.4-7.3-12.6c-4.6-8.6-9-17.4-13.1-26.5c-2-4.6-4-9.1-5.9-13.8
						c-1.9-4.7-3.5-9.4-5.4-13.7c-3.8-8.8-8.6-17.6-13.2-26.4c-2.3-4.4-4.6-8.9-6.9-13.4c-1.1-2.2-2.2-4.5-3.3-6.7
						c-1.1-2.3-2.1-4.5-3.2-6.8c-2.1-4.5-4.2-9.1-6.1-13.7l-1.5-3.4l-1.4-3.5c-0.9-2.3-1.9-4.6-2.8-6.9c-0.9-2.3-1.8-4.6-2.7-6.9
						c-0.9-2.3-1.7-4.6-2.5-6.9l-1.3-3.4l-0.3-0.9l-0.3-0.9c-0.2-0.6-0.4-1.2-0.6-1.8c-0.4-1.2-0.7-2.4-1.1-3.6
						c-0.3-1.2-0.6-2.4-0.9-3.6c-1.1-4.9-1.8-9.8-2-14.8c-0.2-5,0.2-9.9,0.9-14.8c1.6-9.7,5-19.1,10-27.1c1.2-2.1,2.6-3.9,4-5.9
						c1.5-1.8,2.9-3.7,4.5-5.3l1.2-1.3c0.4-0.4,0.8-0.8,1.2-1.2c0.8-0.8,1.7-1.6,2.5-2.3c0.9-0.7,1.8-1.4,2.6-2.2
						c0.9-0.7,1.8-1.3,2.7-2c3.7-2.6,7.5-4.8,11.5-6.5c2-0.9,4-1.6,6-2.3c1-0.3,2-0.6,3.1-0.9l1.5-0.4l1.5-0.3c1-0.2,2-0.4,3.1-0.6
						c1-0.1,2-0.3,3.1-0.4l1.5-0.2l1.5-0.1c1-0.1,2-0.1,3-0.1c1,0,2,0,3,0.1c1,0,2,0,3,0.1c2,0.2,4.1,0.4,5.8,0.7
						c0.9,0.2,1.8,0.3,2.6,0.5l0.3,0.1l0.2,0l0.3,0.1l0.7,0.2l1.4,0.3c1.8,0.4,3.6,0.9,5.3,1.4c3.5,1,6.8,2.3,9.9,3.6
						c1.6,0.7,3.1,1.4,4.6,2.1c1.5,0.7,3,1.6,4.4,2.3c2.7,1.5,5.4,3,8,4.4c5.2,2.8,10,5.4,14.5,7.8c2.3,1.2,4.4,2.3,6.5,3.3
						c2.1,1,4.1,2,5.9,3c7.6,3.7,13.6,6.3,17.8,7.8c2.1,0.8,3.7,1.3,4.8,1.6c0.5,0.1,1,0.3,1.2,0.3c0.3,0.1,0.4,0.1,0.4,0.1
						L460.5,120.7z"/>
				</g>
			</g>
		</g>
	</g>
	<g>
		<g>
			<text transform="matrix(0.9518 0 0 1 368.6563 35.126)" class="st6 st8 st9"></text>
		</g>
	</g>
	<text transform="matrix(0.9518 0 0 1 372.0723 56.0444)" class="st1 st10 st11"></text>
	<text transform="matrix(0.9518 0 0 1 135.3379 128.9287)" class="st12 st10 st11"></text>
	<text transform="matrix(0.9518 0 0 1 135.3379 161.7158)" class="st12 st10 st11"></text>
	<text transform="matrix(0.9518 0 0 1 138.397 199.0029)" class="st12 st10 st11"></text>
</g>
</svg>
