<?xml version="1.0" encoding="utf-8"?>
<!-- Generator: Adobe Illustrator 19.2.1, SVG Export Plug-In . SVG Version: 6.00 Build 0)  -->
<svg version="1.1" id="Layer_1" xmlns="http://www.w3.org/2000/svg" xmlns:xlink="http://www.w3.org/1999/xlink" x="0px" y="0px"
	 viewBox="0 0 500 300" style="enable-background:new 0 0 500 300;" xml:space="preserve">
<style type="text/css">
	.st0{fill:#F8FCFF;}
	.st1{fill:#B7B3B2;}
	.st2{fill:#FFFFFF;}
	.st3{fill:#F3F2F3;}
	.st4{fill:#423D3C;}
	.st5{fill:#1D1D1B;}
	.st6{fill:#0F0909;}
	.st7{fill:#B7B4B2;}
	.st8{fill:#B7B5B5;}
	.st9{fill:#2B2523;}
	.st10{fill:#020202;}
	.st11{font-family:'MyriadPro-Regular';}
	.st12{font-size:20.3193px;}
	.st13{fill:#050606;}
	.st14{fill:#BE1E2D;}
	.st15{font-size:30.479px;}
	.st16{font-size:17.7794px;}
	.st17{fill:#0B0B0B;}
	.st18{fill:#58595B;}
	.st19{fill:#414042;}
	.st20{font-size:12px;}
</style>
<g>
	<rect y="0.7" class="st0" width="500" height="299.3"/>
	<g>
		<g id="background_2_">
			<path id="shadow_6_" class="st1" d="M79.3,246c-0.3-0.8-0.7-1.5-1.2-2.1c-0.5-0.6-1.1-1.1-1.8-1.4v-0.3v-1.6v-0.1
				c0-0.5-0.1-1-0.3-1.5c-0.1-0.2-0.1-0.4-0.2-0.5c0,0-0.1-0.1-0.1-0.1c-0.3-0.6-0.8-1.1-1.3-1.4c-0.1-0.1-0.2-0.1-0.3-0.2
				c-0.5-0.3-1-0.4-1.5-0.4h-0.1h-1.4h-13h-1.4h-0.1c-0.5,0-1,0.1-1.5,0.4c-0.1,0.1-0.2,0.1-0.3,0.2c-0.5,0.3-0.9,0.8-1.3,1.4
				c0,0.1-0.1,0.1-0.1,0.2c-0.3,0.6-0.5,1.3-0.5,2v0.1v1.6v7v1.6v0.1c0,0.4,0.1,0.9,0.2,1.3c0.2,0.8,0.7,1.5,1.3,2.1
				c0.7,0.5,1.4,0.8,2.2,0.8h1.4c0.2,0,0.4,0,0.6-0.1h12h0.8c0.3,0,0.6-0.1,0.9-0.2c0.3,0.1,0.6,0.2,0.8,0.2c0.2,0,0.5,0,0.7,0
				c0.6,0,1.3-0.1,1.9-0.4c0.8-0.3,1.5-0.9,2.2-1.6c0.5-0.6,0.9-1.3,1.2-2.1c0.3-0.8,0.4-1.6,0.5-2.5v0
				C79.8,247.6,79.6,246.8,79.3,246z"/>
			<path id="outside_2_" class="st2" d="M73.5,254.3c-0.2,0-0.5,0-0.7-0.1c-0.3,0-0.6-0.1-0.8-0.2c-0.3,0.1-0.6,0.2-0.9,0.2H58.2
				c-0.2,0-0.4,0.1-0.6,0.1h-1.4c-0.8,0-1.6-0.3-2.2-0.8c-0.6-0.5-1.1-1.2-1.3-2c-0.1-0.4-0.2-0.8-0.2-1.3v-10.3
				c0-0.7,0.2-1.4,0.5-2c0-0.1,0.1-0.1,0.1-0.2c0.3-0.6,0.8-1,1.3-1.4c0.1-0.1,0.2-0.1,0.3-0.2c0.5-0.3,1-0.4,1.5-0.4h16
				c0.5,0,1,0.1,1.5,0.4c0.1,0.1,0.2,0.1,0.3,0.2c0.5,0.3,1,0.8,1.3,1.4c0,0,0.1,0.1,0.1,0.1c0.1,0.2,0.2,0.3,0.2,0.5
				c0.2,0.5,0.3,0.9,0.3,1.4v2.1c0.7,0.3,1.3,0.8,1.8,1.4c0.5,0.6,0.9,1.3,1.2,2.1c0.3,0.8,0.4,1.6,0.4,2.5v0c0,0.8-0.2,1.7-0.5,2.4
				c-0.3,0.8-0.7,1.5-1.2,2.1c-0.6,0.7-1.3,1.2-2.1,1.6C74.8,254.2,74.2,254.3,73.5,254.3z"/>
			<path id="stroke_2_" class="st1" d="M78.8,245.4c-0.3-0.8-0.7-1.5-1.2-2.1c-0.5-0.6-1.1-1.1-1.8-1.4v-0.3V240v-0.1
				c0-0.5-0.1-1-0.3-1.5c-0.1-0.2-0.2-0.4-0.2-0.5c0,0-0.1-0.1-0.1-0.1c-0.3-0.6-0.8-1.1-1.3-1.4c-0.1-0.1-0.2-0.1-0.3-0.2
				c-0.5-0.3-1-0.4-1.5-0.4H72h-1.4h-13h-1.4h-0.1c-0.5,0-1,0.1-1.5,0.4c-0.1,0.1-0.2,0.1-0.3,0.2c-0.5,0.3-0.9,0.8-1.3,1.4
				c0,0.1-0.1,0.1-0.1,0.2c-0.3,0.6-0.5,1.3-0.5,2v0.1v1.6v7v1.6v0.1c0,0.4,0.1,0.9,0.2,1.3c0.2,0.8,0.7,1.5,1.3,2.1
				c0.7,0.5,1.4,0.8,2.2,0.8h1.4c0.2,0,0.4,0,0.6-0.1h12h0.8c0.3,0,0.6-0.1,0.9-0.2c0.3,0.1,0.6,0.2,0.8,0.2c0.2,0,0.5,0,0.7,0
				c0.6,0,1.3-0.1,1.9-0.4c0.8-0.3,1.5-0.9,2.2-1.6c0.5-0.6,1-1.3,1.2-2.1c0.3-0.8,0.5-1.6,0.5-2.4v0
				C79.3,247,79.1,246.2,78.8,245.4z M79.2,247.9c0,0.8-0.2,1.6-0.5,2.4c-0.3,0.8-0.7,1.5-1.2,2c-0.6,0.7-1.3,1.2-2.1,1.5
				c-0.6,0.2-1.2,0.4-1.8,0.4c-0.2,0-0.5,0-0.7,0c-0.3,0-0.6-0.1-0.9-0.2c-0.3,0.1-0.6,0.2-0.9,0.2h-0.8h-12c-0.2,0-0.4,0.1-0.6,0.1
				h-1.4c-0.8,0-1.6-0.3-2.2-0.8c-0.6-0.5-1.1-1.2-1.3-2c-0.1-0.4-0.2-0.8-0.2-1.2v-0.1v-1.6v-7V240v-0.1c0-0.7,0.2-1.3,0.5-1.9
				c0-0.1,0.1-0.1,0.1-0.2c0.3-0.5,0.7-1,1.2-1.3c0.1-0.1,0.2-0.1,0.3-0.2c0.5-0.3,1-0.4,1.5-0.4h0.1h1.4h13H72h0.1
				c0.5,0,1,0.1,1.5,0.4c0.1,0,0.2,0.1,0.3,0.2c0.5,0.3,0.9,0.8,1.3,1.4c0,0,0.1,0.1,0.1,0.1c0.1,0.2,0.2,0.3,0.2,0.5
				c0.2,0.5,0.3,0.9,0.3,1.4v0.1v1.6v0.4c0.7,0.3,1.3,0.8,1.8,1.4c0.5,0.6,0.9,1.3,1.2,2.1C79,246.2,79.2,247,79.2,247.9L79.2,247.9
				z"/>
			<path id="shadow_5_" class="st3" d="M75.7,240.3L75.7,240.3L75.7,240.3c0-0.1,0-0.2,0-0.2c0-0.1,0-0.2,0-0.3
				c-4.6,5.9-16.1,8.8-23.1,5v2.3v1.5v1.6v0.1c0,0.4,0.1,0.8,0.2,1.2c0.2,0.8,0.7,1.5,1.3,2c0.6,0.5,1.4,0.8,2.2,0.8h1.4
				c0.2,0,0.4,0,0.6-0.1h12h0.8c0.3,0,0.6-0.1,0.9-0.2c0.3,0.1,0.6,0.2,0.9,0.2c0.2,0,0.5,0,0.7,0c0.6,0,1.2-0.1,1.8-0.4
				c0.8-0.3,1.5-0.8,2.1-1.5c0.5-0.6,0.9-1.3,1.2-2c0.3-0.8,0.4-1.6,0.5-2.4v0c0-0.8-0.1-1.7-0.4-2.4c-0.3-0.8-0.7-1.5-1.2-2.1
				c-0.5-0.6-1.1-1.1-1.8-1.4v-0.4V240.3z"/>
		</g>
		<g id="envelope_1_">
			<path class="st4" d="M64.1,246.4l8.5-7.9h0c-0.1-0.1-0.3-0.1-0.5-0.1h-16c-0.2,0-0.3,0-0.5,0.1h0L64.1,246.4z"/>
			<path class="st4" d="M55,239.3c-0.1,0.2-0.2,0.4-0.2,0.6v10.3c0,0.2,0.1,0.4,0.2,0.6l6.2-5.8L55,239.3z"/>
			<path class="st4" d="M69.7,246.1c0.2-0.6,0.5-1.1,0.9-1.5c0.4-0.4,0.8-0.8,1.3-1c0.5-0.2,1-0.3,1.5-0.3v-0.2h0v-3.2
				c0-0.2,0-0.3-0.1-0.4c0-0.1,0-0.1-0.1-0.2l-2.3,2.2l-3.9,3.6l2,1.8l0,0l0.4,0.4C69.5,246.8,69.6,246.5,69.7,246.1z"/>
			<path class="st4" d="M70.6,251.2c-0.4-0.4-0.7-0.9-0.9-1.5c-0.1-0.4-0.2-0.7-0.3-1.1l-3-2.8l0,0l0,0l-2,1.9
				c-0.1,0.1-0.1,0.1-0.2,0.1c-0.1,0-0.1,0-0.2-0.1l-2-1.9l0,0l0,0l-6.2,5.8h0c0.1,0.1,0.3,0.1,0.5,0.1H58h12.3h0.8
				C70.9,251.5,70.8,251.4,70.6,251.2z"/>
		</g>
		<g id="shadow_4_">
			<path class="st5" d="M54.8,245.7v4.5c0,0.2,0.1,0.4,0.2,0.6l4.7-4.3C58,246.4,56.3,246.2,54.8,245.7z"/>
			<path class="st5" d="M67.3,245.3l1.7,1.6l0,0l0.4,0.4c0-0.4,0.1-0.8,0.3-1.1c0.2-0.6,0.5-1.1,0.9-1.5c0.4-0.4,0.8-0.8,1.3-1
				c0.5-0.2,1-0.3,1.5-0.3v-0.2h0V242C71.7,243.4,69.6,244.5,67.3,245.3z"/>
			<path class="st5" d="M55.7,251.5L55.7,251.5c0.1,0.1,0.3,0.1,0.5,0.1H58h12.3h0.8c-0.2-0.1-0.3-0.3-0.5-0.5
				c-0.4-0.4-0.7-0.9-0.9-1.5c-0.1-0.4-0.2-0.7-0.3-1.1l-3-2.8l0,0l0,0l-2,1.9c-0.1,0.1-0.1,0.1-0.2,0.1c-0.1,0-0.1,0-0.2-0.1
				l-1.4-1.3c-0.5,0.1-0.9,0.1-1.4,0.1L55.7,251.5z"/>
		</g>
		<g id="email_1_">
			<g>
				<path class="st6" d="M76.6,246.4c-0.1-0.3-0.2-0.6-0.4-0.9c-0.3-0.4-0.7-0.8-1.2-1c-0.5-0.2-1-0.4-1.5-0.4
					c-0.4,0-0.9,0.1-1.3,0.3c-0.4,0.2-0.8,0.5-1.1,0.8c-0.3,0.3-0.6,0.8-0.7,1.2c-0.2,0.5-0.3,0.9-0.3,1.5c0,0.5,0.1,1,0.3,1.5
					c0.2,0.5,0.4,0.9,0.7,1.2c0.3,0.3,0.7,0.6,1.1,0.8c0.4,0.2,0.9,0.3,1.3,0.3c0.4,0,0.8-0.1,1.1-0.2c0.4-0.1,0.7-0.3,1-0.6
					c0,0,0-0.1,0-0.1l-0.4-0.7c0,0,0,0,0,0h0c0,0,0,0,0,0c-0.2,0.2-0.5,0.4-0.8,0.5c-0.3,0.1-0.6,0.2-0.9,0.2c-0.4,0-0.7-0.1-1-0.2
					c-0.3-0.1-0.6-0.3-0.8-0.6c-0.2-0.3-0.4-0.6-0.6-0.9c-0.1-0.3-0.2-0.7-0.2-1.1c0-0.5,0.1-0.9,0.3-1.4c0.2-0.4,0.5-0.8,0.8-1
					c0.2-0.2,0.5-0.3,0.7-0.4c0.3-0.1,0.5-0.1,0.8-0.1c0.4,0,0.8,0.1,1.1,0.3c0.3,0.2,0.6,0.4,0.9,0.8c0.1,0.2,0.2,0.4,0.3,0.6
					c0.1,0.2,0.1,0.5,0.1,0.8c0,0.4-0.1,0.8-0.2,1c-0.2,0.2-0.4,0.4-0.6,0.4v-2.8c0,0,0-0.1-0.1-0.1h-0.8c0,0-0.1,0-0.1,0.1v0.3
					c-0.1-0.1-0.2-0.2-0.3-0.3c-0.2-0.1-0.4-0.2-0.6-0.2c-0.4,0-0.8,0.2-1.1,0.5c-0.3,0.4-0.4,0.8-0.4,1.4c0,0.6,0.1,1,0.4,1.4
					c0.3,0.4,0.6,0.5,1.1,0.5c0.2,0,0.4-0.1,0.6-0.2c0.1-0.1,0.2-0.2,0.3-0.3v0.4c0,0,0,0.1,0.1,0.1h0.1c0.7,0,1.3-0.2,1.7-0.6
					c0.4-0.4,0.6-1,0.6-1.8C76.8,247.1,76.7,246.7,76.6,246.4z M74.1,247.9c0,0.3-0.1,0.6-0.2,0.8c-0.1,0.2-0.3,0.3-0.5,0.3
					c-0.2,0-0.4-0.1-0.5-0.3c-0.1-0.2-0.2-0.4-0.2-0.8c0-0.3,0.1-0.6,0.2-0.7c0.1-0.2,0.3-0.3,0.5-0.3c0.2,0,0.4,0.1,0.5,0.3
					C74.1,247.3,74.1,247.6,74.1,247.9z"/>
			</g>
		</g>
	</g>
	<g>
		<g id="background_1_">
			<path id="shadow_3_" class="st7" d="M332.6,236.6h-0.1c0,0-0.1,0-0.1,0h-2c0,0-0.1,0-0.1,0h-5c-1.9,0-3.5,1.4-3.5,3.1v1.8v5.3
				v3.5v1.8c0,1.7,1.6,3.1,3.5,3.1h7.5c1.9,0,3.5-1.4,3.5-3.1v-1.8v-3.5v-5.3v-1.8C336.1,238,334.5,236.6,332.6,236.6z"/>
			<path id="outside_1_" class="st2" d="M324.7,254.8c-1.9,0-3.5-1.4-3.5-3.1v-12.4c0-1.7,1.6-3.1,3.5-3.1h5c0,0,0.1,0,0.1,0h2
				c0,0,0.1,0,0.1,0h0.1c1.9,0,3.5,1.4,3.5,3.1v12.4c0,1.7-1.6,3.1-3.5,3.1H324.7z"/>
			<path id="stroke_1_" class="st8" d="M331.9,236.3c0,0,0.1,0,0.1,0h0.1c1.9,0,3.4,1.4,3.4,3.1v1.8v5.3v3.5v1.8
				c0,1.7-1.5,3.1-3.4,3.1h-7.5c-1.9,0-3.4-1.4-3.4-3.1V250v-3.5v-5.3v-1.8c0-1.7,1.5-3.1,3.4-3.1h5c0,0,0.1,0,0.1,0H331.9
				 M331.9,236.2h-2c0,0-0.1,0-0.1,0h-5c-1.9,0-3.5,1.4-3.5,3.1v1.8v5.3v3.5v1.8c0,1.7,1.6,3.1,3.5,3.1h7.5c1.9,0,3.5-1.4,3.5-3.1
				V250v-3.5v-5.3v-1.8c0-1.7-1.6-3.1-3.5-3.1H332C332,236.2,331.9,236.2,331.9,236.2L331.9,236.2z"/>
			<path id="shadow_2_" class="st3" d="M335.6,251.7V250v-3.5v-0.8c-2.7,1.8-9.9,4-14.3,3.2l0,0v1.1v1.8c0,1.7,1.5,3.1,3.4,3.1h7.5
				C334,254.8,335.6,253.4,335.6,251.7z"/>
		</g>
		<path class="st4" d="M332.1,238h-0.3v0h-2v0h-5.2c-0.8,0-1.5,0.6-1.5,1.3v1.8v5.3v3.5v1.8c0,0.7,0.7,1.3,1.5,1.3h7.5
			c0.8,0,1.5-0.6,1.5-1.3V250v-3.5v-5.3v-1.8C333.6,238.6,333,238,332.1,238z M326.6,251.6h-1.9v-1.1h1.9V251.6z M326.6,249.7h-1.9
			v-1.1h1.9V249.7z M329.3,251.6h-1.9v-1.1h1.9V251.6z M329.3,249.7h-1.9v-1.1h1.9V249.7z M332,251.6h-1.9v-1.1h1.9V251.6z
			 M332,249.7h-1.9v-1.1h1.9V249.7z M332,247.9h-7.3v-1.4v-7h7.3v7V247.9z"/>
		<path id="shadow_1_" class="st9" d="M332,247.4v0.6h-1.7c-1.2,0.4-2.5,0.7-3.7,0.9v1h-1.9V249c-0.5,0-1.1,0.1-1.6,0.1v0.9v1.8
			c0,0.7,0.7,1.3,1.5,1.3h7.5c0.8,0,1.5-0.6,1.5-1.3V250v-3.2C333.1,246.9,332.6,247.1,332,247.4z M326.6,251.6h-1.9v-1.1h1.9V251.6
			z M329.3,251.6h-1.9v-1.1h1.9V251.6z M329.3,249.7h-1.9v-1.1h1.9V249.7z M332,251.6h-1.9v-1.1h1.9V251.6z M332,249.7h-1.9v-1.1
			h1.9V249.7z"/>
		<rect x="325.6" y="240.2" class="st4" width="5.6" height="6.9"/>
	</g>
</g>
<text transform="matrix(0.8876 0 0 1 92.8628 254.2539)" class="st10 st11 st12"></text>
<text transform="matrix(0.8876 0 0 1 347.7949 251.4688)" class="st13 st11 st12"></text>
<text transform="matrix(0.8876 0 0 1 185.1367 169.7604)" class="st14 st11 st15"></text>
<text transform="matrix(0.8876 0 0 1 158.938 108.5535)" class="st14 st11 st15"></text>
<text transform="matrix(0.8876 0 0 1 205.4883 277.8008)" class="st2 st11 st16"></text>
<g>
	<polygon class="st14" points="500,265.2 0,300 0,288.2 500,253.5 	"/>
	<polygon class="st14" points="500,12.4 0,47.2 0,35.5 500,0.7 	"/>
</g>
<polygon class="st17" points="0,0 0,35.5 500,0.7 500,0 "/>
<polygon class="st17" points="500,300 500,265.2 0,300 "/>
<g>
	<path class="st18" d="M346.1,144c0,0.9-0.7,1.6-1.6,1.6h-9.3c-0.9,0-1.6-0.7-1.6-1.6V97.6c0-0.9,0.7-1.6,1.6-1.6h9.3
		c0.9,0,1.6,0.7,1.6,1.6V144z"/>
	<path class="st18" d="M116.6,144c0,0.9-0.7,1.6-1.6,1.6h-9.3c-0.9,0-1.6-0.7-1.6-1.6V97.6c0-0.9,0.7-1.6,1.6-1.6h9.3
		c0.9,0,1.6,0.7,1.6,1.6V144z"/>
</g>
<g>
	<path class="st19" d="M120.4,152.8c0,0.9,0.7,1.6,1.6,1.6h13.7c0.9,0,1.6-0.7,1.6-1.6V88.8c0-0.9-0.7-1.6-1.6-1.6h-13.7
		c-0.9,0-1.6,0.7-1.6,1.6V152.8z"/>
	<path class="st19" d="M329.7,152.8c0,0.9-0.7,1.6-1.6,1.6h-13.7c-0.9,0-1.6-0.7-1.6-1.6V88.8c0-0.9,0.7-1.6,1.6-1.6H328
		c0.9,0,1.6,0.7,1.6,1.6V152.8z"/>
	<polygon class="st18" points="225.1,116.4 141.3,116.4 141.3,125.2 225.1,125.2 308.8,125.2 308.8,116.4 	"/>
</g>
<text transform="matrix(1 0 0 1 185.1368 189)" class="st11 st20">DESIGNATION</text>
</svg>
