<?xml version="1.0" encoding="utf-8"?>
<!-- Generator: Adobe Illustrator 19.2.1, SVG Export Plug-In . SVG Version: 6.00 Build 0)  -->
<svg version="1.1" id="Layer_1" xmlns="http://www.w3.org/2000/svg" xmlns:xlink="http://www.w3.org/1999/xlink" x="0px" y="0px"
	 viewBox="0 0 500 300" style="enable-background:new 0 0 500 300;" xml:space="preserve">
<style type="text/css">
	.st0{fill:#FFFFFF;}
	.st1{fill:#CE2330;}
	.st2{fill:#D45B5B;}
	.st3{clip-path:url(#SVGID_2_);}
	.st4{opacity:0.2;fill:#CE2330;}
	.st5{fill:#CCA8A8;}
	.st6{fill:none;stroke:#CE2330;stroke-width:2;stroke-miterlimit:10;}
	.st7{fill:#D33D47;}
	.st8{font-family:'MyriadPro-Regular';}
	.st9{font-size:22.2515px;}
	.st10{font-size:16.6886px;}
</style>
<g>
	<rect class="st0" width="500" height="300"/>
	<path class="st1" d="M152.7,10.1c-1.6-1.7-3.2-3.3-4.8-4.9L147.7,0h-9.2v5.2c3.3,3.1,6.5,6.3,9.7,9.6
		c43.1,45.4,66.9,105.8,66.9,170c0,38.7-8.6,76-24.9,109.5l0,5.7h7l0-5.7c15.8-33.6,24.2-70.9,24.2-109.5
		C221.4,118.8,197,56.8,152.7,10.1z"/>
	<path class="st2" d="M112.4,5.2l0.1-5.2H0v300h171.5l-0.1-5.7c17.3-32.3,27.2-69.7,27.2-109.5C198.6,111.1,164.7,45.8,112.4,5.2z"
		/>
	<g>
		<defs>
			<path id="SVGID_1_" d="M112.4,5.2l0.1-5.2H0v300h171.5l-0.1-5.7c17.3-32.3,27.2-69.7,27.2-109.5
				C198.6,111.1,164.7,45.8,112.4,5.2z"/>
		</defs>
		<clipPath id="SVGID_2_">
			<use xlink:href="#SVGID_1_"  style="overflow:visible;"/>
		</clipPath>
		<g class="st3">
			<polygon class="st4" points="59.4,34.9 59.4,10.9 27.7,10.9 27.7,34.9 4.9,34.9 4.9,68.3 27.7,68.3 27.7,92.2 59.4,92.2 
				59.4,68.3 82.1,68.3 82.1,34.9 			"/>
			<polygon class="st4" points="164,34.9 164,10.9 132.3,10.9 132.3,34.9 109.5,34.9 109.5,68.3 132.3,68.3 132.3,92.2 164,92.2 
				164,68.3 186.8,68.3 186.8,34.9 			"/>
			<polygon class="st4" points="59.4,231.2 59.4,207.3 27.7,207.3 27.7,231.2 4.9,231.2 4.9,264.6 27.7,264.6 27.7,288.6 
				59.4,288.6 59.4,264.6 82.1,264.6 82.1,231.2 			"/>
			<polygon class="st4" points="164,231.2 164,207.3 132.3,207.3 132.3,231.2 109.5,231.2 109.5,264.6 132.3,264.6 132.3,288.6 
				164,288.6 164,264.6 186.8,264.6 186.8,231.2 			"/>
			<polygon class="st4" points="7,132.7 7,108.7 -24.7,108.7 -24.7,132.7 -47.4,132.7 -47.4,166 -24.7,166 -24.7,190 7,190 7,166 
				29.8,166 29.8,132.7 			"/>
			<polygon class="st4" points="111.7,132.7 111.7,108.7 80,108.7 80,132.7 57.2,132.7 57.2,166 80,166 80,190 111.7,190 111.7,166 
				134.4,166 134.4,132.7 			"/>
			<polygon class="st4" points="216.3,132.7 216.3,108.7 184.6,108.7 184.6,132.7 161.8,132.7 161.8,166 184.6,166 184.6,190 
				216.3,190 216.3,166 239.1,166 239.1,132.7 			"/>
		</g>
	</g>
	<path class="st5" d="M122.4,103.7c-10.2,0-19.6,4.1-26.6,10.8c-7-6.7-16.4-10.8-26.6-10.8c-21.9,0-39.6,18.7-39.6,41.7
		c0,51,50.4,72.7,66.2,84.4c15.8-11.7,66.2-33.4,66.2-84.4l0,0C162.1,122.4,144.3,103.7,122.4,103.7z"/>
	<g>
		<path class="st1" d="M122.4,93.3c-10.2,0-19.6,4.1-26.6,10.8c-7-6.7-16.4-10.8-26.6-10.8c-21.9,0-39.6,18.7-39.6,41.7
			c0,51,50.4,72.7,66.2,84.4c15.8-11.7,66.2-33.4,66.2-84.4l0,0C162.1,112,144.3,93.3,122.4,93.3z"/>
		<polygon class="st0" points="111.7,137.3 111.7,113.4 80,113.4 80,137.3 57.2,137.3 57.2,170.7 80,170.7 80,194.7 111.7,194.7 
			111.7,170.7 134.4,170.7 134.4,137.3 		"/>
		<path class="st5" d="M95.8,104.1c-7-6.7-16.4-10.8-26.6-10.8c-21.9,0-39.6,18.7-39.6,41.7c0,51,50.4,72.7,66.2,84.4V104.1z"/>
	</g>
	<line class="st6" x1="258" y1="113.4" x2="450.3" y2="113.4"/>
	<path class="st5" d="M112.4,5.2l0.1-5.2H88.3v5.2c58,42.4,96.1,113,96.1,193c0,34.2-7,66.8-19.5,96.1l0.1,5.7h6.5l-0.1-5.7
		c17.3-32.3,27.2-69.7,27.2-109.5C198.6,111.1,164.7,45.8,112.4,5.2z"/>
	<polygon class="st7" points="455.7,0 455.7,21.9 478.5,21.9 478.5,45.8 500,45.8 500,0 	"/>
	<rect x="478.5" y="45.8" class="st1" width="21.5" height="33.5"/>
	<rect x="478.5" y="79.4" class="st2" width="21.5" height="33.5"/>
</g>
<text transform="matrix(0.95 0 0 1 265.1152 103.7427)" class="st8 st9"></text>
<text transform="matrix(0.95 0 0 1 265.1152 135.6069)" class="st8 st9"></text>
<text transform="matrix(0.95 0 0 1 265.1152 172.6924)" class="st8 st10"></text>
<text transform="matrix(0.95 0 0 1 265.1152 203.5957)" class="st8 st10"></text>
<text transform="matrix(0.95 0 0 1 265.1162 235.7383)" class="st8 st10"></text>
</svg>
